<svg xmlns="http://www.w3.org/2000/svg" width="24" height="24" viewBox="0 0 24 24"><path d="M9 9.2 6.875 7.075q-.425-.425-.65-.975T6 4.975q0-1.25.85-2.112T8.95 2h6.1q1.225 0 2.062.875t.838 2.1q0 .6-.238 1.163t-.662.987L15 9.175v5.55l2.1 2.1q.425.425.65.975t.225 1.15q0 1.275-.862 2.15t-2.138.875q-.6 0-1.15-.225t-.975-.65q-.175-.175-.387-.262T12 20.75t-.462.088-.388.262q-.425.425-.975.65t-1.15.225q-1.275 0-2.162-.875t-.888-2.15q0-.6.238-1.15t.662-.975L9 14.75zm2-.425v6.4q0 .2-.087.387t-.213.313L8.3 18.25q-.15.125-.225.313T8 18.95q0 .425.3.738t.725.312q.2 0 .387-.075t.338-.225q.45-.45 1.025-.7T12 18.75t1.237.25 1.013.7q.15.125.337.213t.388.087q.425 0 .738-.312t.312-.738q0-.2-.075-.387t-.25-.313l-2.4-2.375q-.125-.15-.213-.325T13 15.175v-6.4q0-.2.075-.387t.2-.313l2.375-2.4q.15-.15.237-.337t.088-.388q0-.4-.275-.675T15.025 4H8.95q-.4 0-.675.288T8 4.975q0 .2.075.375t.2.325l2.425 2.4q.15.125.225.313t.075.387M12.025 12"/></svg>